<svg xmlns="http://www.w3.org/2000/svg" viewBox="0 0 175.82 137.07"><defs><style>.cls-1{fill:#f1e915;}.cls-2{fill:#deeaad;}.cls-3{fill:#bcd759;}.cls-4{fill:#4f5c29;}</style></defs><title>Gait</title><g id="Layer_2" data-name="Layer 2"><g id="Layer_1-2" data-name="Layer 1"><path class="cls-1" d="M86.51,99.28,101.3,29.66,53,24.42l1.14,76.38Z"/><path class="cls-2" d="M93.24,116,86.51,99.28,54.76,104,10.32,122.72l-.24-.22a6,6,0,0,0-4.32-1.88,6,6,0,0,0,0,12h76.3a12.06,12.06,0,0,0,12.1-12A12.21,12.21,0,0,0,93.24,116Z"/><circle class="cls-3" cx="77.43" cy="24.42" r="24.42"/><path class="cls-4" d="M70.3,84a16.2,16.2,0,0,0-16.2,16.2v.85a16.19,16.19,0,0,0,32.33,0v-.82A16.2,16.2,0,0,0,70.3,84Z"/><path class="cls-1" d="M148.6,50,92.68,5.94l-26,41,69,32.74Z"/><path class="cls-2" d="M167.38,57.38,150.26,51.8,133.43,79.12l-14.19,46.11c-.11,0-.21,0-.32,0a6,6,0,0,0-4.22,2.1,6,6,0,0,0,9.24,7.75l49-58.45a12.07,12.07,0,0,0-5.6-19.29Z"/><circle class="cls-3" cx="77.43" cy="25.04" r="24.42"/><path class="cls-4" d="M127.76,57.78a16.2,16.2,0,0,0,7.37,21.7h0l.74.37a16.19,16.19,0,0,0,14.29-29l-.73-.36A16.2,16.2,0,0,0,127.76,57.78Z"/></g></g></svg>